<svg width="28" height="28" viewBox="0 0 28 28" fill="none" xmlns="http://www.w3.org/2000/svg">
<path fill-rule="evenodd" clip-rule="evenodd" d="M18.1977 3C18.3402 4.12491 17.8296 5.26023 17.0578 6.07267C16.286 6.8851 15.0274 7.52047 13.8044 7.43714C13.6381 6.33306 14.2556 5.17691 14.968 4.45822C15.7636 3.64578 17.0934 3.04166 18.1977 3ZM13.1994 8.02377C13.683 8.21611 14.1144 8.38769 14.4632 8.38769C14.7697 8.38769 15.1695 8.23025 15.6424 8.044C16.3994 7.74582 17.344 7.37381 18.3934 7.45576C19.0466 7.50014 20.9176 7.69984 22.1354 9.48603C22.0358 9.5415 19.8991 10.7841 19.9212 13.3801C19.9545 16.4866 22.6336 17.5183 22.6669 17.5294C22.6447 17.6071 22.2351 19.005 21.2498 20.4473C20.3973 21.7009 19.5116 22.9435 18.1167 22.9657C17.443 22.982 16.9932 22.7873 16.5254 22.5847C16.0399 22.3744 15.5349 22.1558 14.74 22.1558C13.8953 22.1558 13.3638 22.3832 12.8519 22.6022C12.4111 22.7909 11.9848 22.9733 11.3855 22.999C10.0348 23.0433 9.01628 21.6454 8.15274 20.4029C6.39245 17.8512 5.05285 13.2137 6.85743 10.074C7.75418 8.50972 9.34841 7.52233 11.0866 7.50014C11.8353 7.48122 12.5627 7.7705 13.1994 8.02377Z" fill="white"/>
</svg>
