<svg width="219" height="80" viewBox="0 0 219 80" fill="none" xmlns="http://www.w3.org/2000/svg">
<path fill-rule="evenodd" clip-rule="evenodd" d="M52.9958 61.5621C49.5191 61.5621 46.4415 60.7429 43.7634 59.1046C41.0853 57.4663 38.9945 55.1727 37.4911 52.2239C36.0347 49.2749 35.3064 45.8109 35.3064 41.8323C35.3064 37.8535 36.0347 34.3898 37.4911 31.4407C38.9945 28.4919 41.0853 26.1984 43.7634 24.56C46.4415 22.9217 49.5191 22.1025 52.9958 22.1025C57.3655 22.1025 60.8893 23.6239 63.5672 26.6663L63.6377 24.0685C63.6377 23.226 64.084 22.8047 64.9768 22.8047H75.6187C76.4644 22.8047 76.8873 23.226 76.8873 24.0685V59.5961C76.8873 60.4387 76.4644 60.8599 75.6187 60.8599H64.9768C64.084 60.8599 63.6377 60.4387 63.6377 59.5961L63.5672 56.9983C60.8893 60.0408 57.3655 61.5621 52.9958 61.5621ZM56.731 48.2217C58.5165 48.2217 59.9494 47.6365 61.0301 46.4664C62.1107 45.2493 62.6512 43.7046 62.6512 41.8323C62.6512 39.96 62.1107 38.4387 61.0301 37.2685C59.9494 36.0515 58.5165 35.4429 56.731 35.4429C54.9927 35.4429 53.5597 36.0515 52.432 37.2685C51.3513 38.4387 50.811 39.96 50.811 41.8323C50.811 43.7046 51.3513 45.2493 52.432 46.4664C53.5597 47.6365 54.9927 48.2217 56.731 48.2217ZM5.78121 60.8599C4.93553 60.8599 4.5127 60.4387 4.5127 59.5961V24.0685C4.5127 23.226 4.93553 22.8047 5.78121 22.8047H16.4232C17.2689 22.8047 17.7151 23.226 17.7622 24.0685L17.9031 27.2279C19.2187 25.4493 20.7927 24.1855 22.6251 23.4366C24.5044 22.6877 26.5717 22.3132 28.827 22.3132C29.8607 22.3132 30.8238 22.4535 31.7164 22.7344C32.4212 22.9217 32.7737 23.3897 32.7737 24.1388V35.6536C32.7737 36.6366 32.3037 37.011 31.3641 36.777C30.2364 36.4961 28.9914 36.3557 27.6288 36.3557C26.6892 36.3557 25.6086 36.5664 24.387 36.9876C23.2123 37.4089 22.1786 38.111 21.286 39.0939C20.4404 40.077 20.0175 41.4344 20.0175 43.1664V59.5961C20.0175 60.4387 19.5947 60.8599 18.7488 60.8599H5.78121Z" fill="#6147FF"/>
<path fill-rule="evenodd" clip-rule="evenodd" d="M152.72 17.0474C154.317 18.4984 156.267 19.224 158.569 19.224C160.919 19.224 162.869 18.4984 164.419 17.0474C166.017 15.5963 166.815 13.724 166.815 11.4302C166.815 9.08995 166.017 7.21764 164.419 5.8133C162.869 4.36224 160.919 3.63672 158.569 3.63672C156.267 3.63672 154.317 4.36224 152.72 5.8133C151.123 7.21764 150.324 9.08995 150.324 11.4302C150.324 13.724 151.123 15.5963 152.72 17.0474ZM150.817 59.5963C150.817 60.4388 151.24 60.8601 152.086 60.8601H165.054C165.899 60.8601 166.322 60.4388 166.322 59.5963V24.0687C166.322 23.2261 165.899 22.8049 165.054 22.8049H152.086C151.24 22.8049 150.817 23.2261 150.817 24.0687V59.5963ZM88.8535 56.8579C91.1085 59.9942 94.8906 61.5623 100.2 61.5623C102.032 61.5623 103.888 61.2814 105.767 60.7197C107.694 60.1579 109.456 59.2687 111.053 58.0516C112.651 56.7878 113.896 55.1729 114.789 53.2069C115.211 52.2708 115.023 51.6389 114.225 51.3113L105.838 47.8006C105.18 47.5197 104.687 47.5664 104.358 47.941C104.029 48.3622 103.747 48.6431 103.513 48.7835C103.325 48.8771 103.089 48.9241 102.808 48.9241C101.633 48.9241 101.046 47.7303 101.046 45.3431V35.7941H107.529C108.375 35.7941 108.798 35.3728 108.798 34.5303V24.4196C108.798 23.5771 108.375 23.1559 107.529 23.1559H101.046V15.0814C101.046 14.2389 100.623 13.8177 99.7772 13.8177H86.8096C85.9639 13.8177 85.5411 14.2389 85.5411 15.0814V23.1559H81.8058C80.96 23.1559 80.5371 23.5771 80.5371 24.4196V34.5303C80.5371 35.3728 80.96 35.7941 81.8058 35.7941H85.5411V43.6581C85.5411 49.3217 86.6451 53.7218 88.8535 56.8579ZM119.601 60.8601C118.755 60.8601 118.332 60.4388 118.332 59.5963V24.0687C118.332 23.2261 118.755 22.8049 119.601 22.8049H130.243C131.088 22.8049 131.535 23.2261 131.582 24.0687L131.723 27.2281C133.038 25.4494 134.612 24.1857 136.445 23.4368C138.324 22.6879 140.391 22.3133 142.647 22.3133C143.68 22.3133 144.643 22.4537 145.536 22.7346C146.241 22.9219 146.593 23.3898 146.593 24.1389V35.6537C146.593 36.6368 146.123 37.0111 145.184 36.7772C144.056 36.4963 142.811 36.3559 141.449 36.3559C140.509 36.3559 139.428 36.5665 138.207 36.9878C137.032 37.409 135.998 38.1112 135.106 39.0941C134.26 40.0772 133.837 41.4346 133.837 43.1666V59.5963C133.837 60.4388 133.414 60.8601 132.569 60.8601H119.601ZM176.536 27.2997C180.72 23.1314 186.392 20.7869 192.309 20.7802C198.226 20.7869 203.899 23.1314 208.083 27.2997C212.267 31.4679 214.62 37.1196 214.626 43.0142C214.626 52.0608 208.034 59.5732 201.052 67.5246C198.842 70.0425 196.555 72.6468 194.519 75.2815C194.258 75.6183 193.923 75.8911 193.54 76.0786C193.157 76.2663 192.736 76.364 192.309 76.364C191.882 76.364 191.461 76.2663 191.078 76.0786C190.695 75.8911 190.36 75.6183 190.1 75.2815C188.063 72.6468 185.776 70.0425 183.566 67.5246C176.584 59.5732 169.992 52.0608 169.992 43.0142C169.998 37.1196 172.352 31.4679 176.536 27.2997ZM187.659 49.9468C189.036 50.863 190.654 51.352 192.309 51.352C194.529 51.352 196.657 50.4737 198.227 48.9099C199.797 47.3464 200.678 45.2255 200.678 43.0142C200.678 41.3652 200.188 39.7532 199.268 38.3821C198.348 37.0109 197.041 35.9421 195.512 35.3111C193.983 34.6801 192.3 34.5151 190.676 34.8367C189.053 35.1583 187.562 35.9524 186.391 37.1185C185.221 38.2846 184.424 39.7703 184.101 41.3877C183.778 43.005 183.944 44.6815 184.577 46.2049C185.21 47.7286 186.283 49.0308 187.659 49.9468Z" fill="#6147FF"/>
</svg>
