<svg width="146" height="78" viewBox="0 0 146 78" fill="none" xmlns="http://www.w3.org/2000/svg">
<g filter="url(#filter0_d_501_8061)">
<path fill-rule="evenodd" clip-rule="evenodd" d="M44.4979 49.7806C42.7595 49.7806 41.2208 49.371 39.8817 48.5518C38.5426 47.7326 37.4973 46.5859 36.7456 45.1115C36.0173 43.6369 35.6532 41.905 35.6532 39.9157C35.6532 37.9263 36.0173 36.1944 36.7456 34.7199C37.4973 33.2455 38.5426 32.0987 39.8817 31.2795C41.2208 30.4604 42.7595 30.0508 44.4979 30.0508C46.6827 30.0508 48.4446 30.8114 49.7836 32.3327L49.8189 31.0338C49.8189 30.6125 50.042 30.4019 50.4884 30.4019H55.8094C56.2322 30.4019 56.4436 30.6125 56.4436 31.0338V48.7976C56.4436 49.2188 56.2322 49.4295 55.8094 49.4295H50.4884C50.042 49.4295 49.8189 49.2188 49.8189 48.7976L49.7836 47.4987C48.4446 49.0199 46.6827 49.7806 44.4979 49.7806ZM46.3655 43.1104C47.2583 43.1104 47.9747 42.8178 48.5151 42.2327C49.0553 41.6242 49.3256 40.8518 49.3256 39.9157C49.3256 38.9795 49.0553 38.2188 48.5151 37.6338C47.9747 37.0252 47.2583 36.721 46.3655 36.721C45.4964 36.721 44.7798 37.0252 44.216 37.6338C43.6756 38.2188 43.4055 38.9795 43.4055 39.9157C43.4055 40.8518 43.6756 41.6242 44.216 42.2327C44.7798 42.8178 45.4964 43.1104 46.3655 43.1104ZM20.8906 49.4295C20.4678 49.4295 20.2563 49.2188 20.2563 48.7976V31.0338C20.2563 30.6125 20.4678 30.4019 20.8906 30.4019H26.2116C26.6344 30.4019 26.8576 30.6125 26.8811 31.0338L26.9516 32.6135C27.6094 31.7241 28.3963 31.0923 29.3126 30.7178C30.2522 30.3434 31.2859 30.1561 32.4135 30.1561C32.9303 30.1561 33.4119 30.2263 33.8582 30.3667C34.2106 30.4604 34.3868 30.6943 34.3868 31.0689V36.8263C34.3868 37.3178 34.1519 37.505 33.682 37.388C33.1182 37.2475 32.4957 37.1774 31.8144 37.1774C31.3446 37.1774 30.8043 37.2827 30.1935 37.4933C29.6061 37.7039 29.0893 38.055 28.643 38.5465C28.2202 39.038 28.0088 39.7167 28.0088 40.5827V48.7976C28.0088 49.2188 27.7973 49.4295 27.3744 49.4295H20.8906Z" fill="white"/>
<path fill-rule="evenodd" clip-rule="evenodd" d="M94.3601 27.5237C95.1587 28.2492 96.1336 28.612 97.2847 28.612C98.4595 28.612 99.4344 28.2492 100.21 27.5237C101.008 26.7982 101.408 25.862 101.408 24.7151C101.408 23.545 101.008 22.6088 100.21 21.9066C99.4344 21.1811 98.4595 20.8184 97.2847 20.8184C96.1336 20.8184 95.1587 21.1811 94.3601 21.9066C93.5613 22.6088 93.1619 23.545 93.1619 24.7151C93.1619 25.862 93.5613 26.7982 94.3601 27.5237ZM93.4086 48.7982C93.4086 49.2194 93.6201 49.43 94.0429 49.43H100.527C100.95 49.43 101.161 49.2194 101.161 48.7982V31.0343C101.161 30.6131 100.95 30.4024 100.527 30.4024H94.0429C93.6201 30.4024 93.4086 30.6131 93.4086 31.0343V48.7982ZM62.4267 47.429C63.5543 48.9971 65.4453 49.7811 68.1 49.7811C69.0162 49.7811 69.9441 49.6407 70.8837 49.3599C71.8471 49.079 72.728 48.6343 73.5266 48.0258C74.3254 47.3939 74.948 46.5864 75.3943 45.6035C75.6057 45.1354 75.5117 44.8194 75.1123 44.6556L70.919 42.9003C70.5902 42.7599 70.3435 42.7832 70.1791 42.9705C70.0146 43.1811 69.8737 43.3216 69.7563 43.3917C69.6623 43.4386 69.5447 43.462 69.4038 43.462C68.8164 43.462 68.5228 42.8652 68.5228 41.6716V36.897H71.7647C72.1875 36.897 72.3992 36.6864 72.3992 36.2652V31.2098C72.3992 30.7886 72.1875 30.5779 71.7647 30.5779H68.5228V26.5407C68.5228 26.1195 68.3114 25.9088 67.8886 25.9088H61.4048C60.982 25.9088 60.7705 26.1195 60.7705 26.5407V30.5779H58.9029C58.48 30.5779 58.2686 30.7886 58.2686 31.2098V36.2652C58.2686 36.6864 58.48 36.897 58.9029 36.897H60.7705V40.829C60.7705 43.6609 61.3225 45.8609 62.4267 47.429ZM77.8004 49.43C77.3775 49.43 77.1661 49.2194 77.1661 48.7982V31.0343C77.1661 30.6131 77.3775 30.4024 77.8004 30.4024H83.1213C83.5442 30.4024 83.7674 30.6131 83.7909 31.0343L83.8614 32.6141C84.5191 31.7247 85.3061 31.0928 86.2223 30.7184C87.162 30.3439 88.1956 30.1567 89.3233 30.1567C89.8401 30.1567 90.3216 30.2268 90.7679 30.3673C91.1204 30.4609 91.2966 30.6949 91.2966 31.0695V36.8269C91.2966 37.3184 91.0617 37.5056 90.5918 37.3886C90.0281 37.2481 89.4054 37.178 88.7243 37.178C88.2543 37.178 87.7141 37.2833 87.1033 37.4939C86.5159 37.7045 85.999 38.0556 85.5528 38.547C85.1299 39.0386 84.9185 39.7173 84.9185 40.5833V48.7982C84.9185 49.2194 84.7071 49.43 84.2843 49.43H77.8004ZM106.268 32.6498C108.36 30.5657 111.196 29.3934 114.155 29.3901C117.113 29.3934 119.949 30.5657 122.041 32.6498C124.133 34.734 125.31 37.5598 125.313 40.5071C125.313 45.0304 122.017 48.7866 118.526 52.7623C117.421 54.0213 116.277 55.3234 115.259 56.6407C115.129 56.8092 114.962 56.9455 114.77 57.0393C114.579 57.1331 114.368 57.182 114.155 57.182C113.941 57.182 113.731 57.1331 113.539 57.0393C113.347 56.9455 113.18 56.8092 113.05 56.6407C112.032 55.3234 110.888 54.0213 109.783 52.7623C106.292 48.7866 102.996 45.0304 102.996 40.5071C102.999 37.5598 104.176 34.734 106.268 32.6498ZM111.83 43.9734C112.518 44.4315 113.327 44.676 114.155 44.676C115.264 44.676 116.329 44.2368 117.113 43.455C117.898 42.6732 118.339 41.6127 118.339 40.5071C118.339 39.6826 118.094 38.8766 117.634 38.191C117.174 37.5055 116.52 36.9711 115.756 36.6556C114.991 36.34 114.15 36.2575 113.338 36.4184C112.527 36.5792 111.781 36.9762 111.196 37.5592C110.61 38.1423 110.212 38.8852 110.051 39.6938C109.889 40.5025 109.972 41.3407 110.289 42.1025C110.605 42.8643 111.142 43.5154 111.83 43.9734Z" fill="white"/>
</g>
<defs>
<filter id="filter0_d_501_8061" x="-2" y="-1" width="149.5" height="80" filterUnits="userSpaceOnUse" color-interpolation-filters="sRGB">
<feFlood flood-opacity="0" result="BackgroundImageFix"/>
<feColorMatrix in="SourceAlpha" type="matrix" values="0 0 0 0 0 0 0 0 0 0 0 0 0 0 0 0 0 0 127 0" result="hardAlpha"/>
<feOffset/>
<feGaussianBlur stdDeviation="10"/>
<feComposite in2="hardAlpha" operator="out"/>
<feColorMatrix type="matrix" values="0 0 0 0 0 0 0 0 0 0 0 0 0 0 0 0 0 0 0.25 0"/>
<feBlend mode="normal" in2="BackgroundImageFix" result="effect1_dropShadow_501_8061"/>
<feBlend mode="normal" in="SourceGraphic" in2="effect1_dropShadow_501_8061" result="shape"/>
</filter>
</defs>
</svg>
