<svg width="102" height="91" viewBox="0 0 102 91" fill="none" xmlns="http://www.w3.org/2000/svg">
<path d="M19.5696 51.251C19.5696 50.6987 20.0173 50.251 20.5696 50.251H38.5696C39.1219 50.251 39.5696 50.6987 39.5696 51.251V70.1296C39.5696 70.9751 38.5854 71.439 37.9332 70.901L30.206 64.526C29.8365 64.2212 29.3027 64.2212 28.9332 64.526L21.206 70.901C20.5537 71.439 19.5696 70.9751 19.5696 70.1296V51.251Z" fill="#DEE1E6"/>
<rect x="0.75" y="32.4316" width="57.6392" height="57.6392" rx="11.25" stroke="#DEE1E6" stroke-width="1.5"/>
<rect x="30.4881" y="15.837" width="57.6392" height="57.6392" rx="11.25" transform="rotate(-15 30.4881 15.837)" fill="white"/>
<path d="M53.5373 29.1446C53.3944 28.6112 53.711 28.0628 54.2444 27.9199L71.6311 23.2611C72.1646 23.1182 72.7129 23.4348 72.8558 23.9683L77.742 42.2036C77.9608 43.0203 77.1303 43.7231 76.361 43.3722L67.2471 39.2144C66.8113 39.0156 66.2957 39.1538 66.0177 39.5438L60.2037 47.7015C59.713 48.3901 58.6423 48.1967 58.4235 47.38L53.5373 29.1446Z" fill="#6147FF"/>
<rect x="30.4881" y="15.837" width="57.6392" height="57.6392" rx="11.25" transform="rotate(-15 30.4881 15.837)" stroke="#6147FF" stroke-width="1.5"/>
</svg>
