<svg width="28" height="34" viewBox="0 0 28 34" fill="none" xmlns="http://www.w3.org/2000/svg">
<path fill-rule="evenodd" clip-rule="evenodd" d="M4.71117 4.71101C7.17521 2.24705 10.5157 0.861104 14.0004 0.857178C17.4848 0.861104 20.8256 2.24705 23.2894 4.71101C25.7534 7.17498 27.1393 10.5158 27.1431 14.0003C27.1431 19.348 23.261 23.7888 19.1491 28.4891C17.8478 29.9775 16.5007 31.517 15.3015 33.0744C15.1479 33.2735 14.9509 33.4348 14.7254 33.5456C14.4997 33.6566 14.2517 33.7143 14.0004 33.7143C13.7489 33.7143 13.5009 33.6566 13.2754 33.5456C13.0497 33.4348 12.8526 33.2735 12.6991 33.0744C11.4999 31.517 10.1527 29.9775 8.85168 28.4891C4.73954 23.7888 0.857422 19.348 0.857422 14.0003C0.861222 10.5158 2.24738 7.17498 4.71117 4.71101Z" fill="#6147FF"/>
</svg>
