<svg width="29" height="28" viewBox="0 0 29 28" fill="none" xmlns="http://www.w3.org/2000/svg">
<mask id="path-1-inside-1_623_12322" fill="white">
<path d="M3.87891 7.5C3.87891 5.29086 5.66977 3.5 7.87891 3.5H20.788C22.9971 3.5 24.788 5.29086 24.788 7.5V22.5C24.788 24.1481 22.9065 25.0889 21.588 24.1L14.9335 19.1091C14.5779 18.8424 14.089 18.8424 13.7335 19.1091L7.07891 24.1C5.76043 25.0889 3.87891 24.1481 3.87891 22.5V7.5Z" />
</mask>
<path d="M3.87891 7.5C3.87891 5.29086 5.66977 3.5 7.87891 3.5H20.788C22.9971 3.5 24.788 5.29086 24.788 7.5V22.5C24.788 24.1481 22.9065 25.0889 21.588 24.1L14.9335 19.1091C14.5779 18.8424 14.089 18.8424 13.7335 19.1091L7.07891 24.1C5.76043 25.0889 3.87891 24.1481 3.87891 22.5V7.5Z" stroke="#000" stroke-width="3.5" mask="url(#path-1-inside-1_623_12322)" fill="white"/>
</svg>

