
<svg width="120" height="120" viewBox="0 0 120 120" fill="none" xmlns="http://www.w3.org/2000/svg">
<path d="M31.5703 68.251C31.5703 67.6987 32.018 67.251 32.5703 67.251H50.5703C51.1226 67.251 51.5703 67.6987 51.5703 68.251V87.1296C51.5703 87.9751 50.5861 88.439 49.9339 87.901L42.2067 81.526C41.8372 81.2212 41.3034 81.2212 40.9339 81.526L33.2067 87.901C32.5545 88.439 31.5703 87.9751 31.5703 87.1296V68.251Z" fill="#DEE1E6"/>
<rect x="12.75" y="49.4316" width="57.6392" height="57.6392" rx="11.25" stroke="#DEE1E6" stroke-width="1.5"/>
<rect x="42.4889" y="32.837" width="57.6392" height="57.6392" rx="11.25" transform="rotate(-15 42.4889 32.837)" fill="white"/>
<path d="M65.5381 46.1446C65.3952 45.6112 65.7118 45.0628 66.2452 44.9199L83.6319 40.2611C84.1654 40.1182 84.7137 40.4348 84.8566 40.9683L89.7428 59.2036C89.9616 60.0203 89.1311 60.7231 88.3618 60.3722L79.2479 56.2144C78.8121 56.0156 78.2965 56.1538 78.0185 56.5438L72.2045 64.7015C71.7138 65.3901 70.6431 65.1967 70.4243 64.38L65.5381 46.1446Z" fill="#6147FF"/>
<rect x="42.4889" y="32.837" width="57.6392" height="57.6392" rx="11.25" transform="rotate(-15 42.4889 32.837)" stroke="#6147FF" stroke-width="1.5"/>
<path d="M101.338 18.0449L105.581 13.8023" stroke="#6147FF" stroke-width="2" stroke-linecap="round"/>
<path d="M98 15.4639L101 10.2677" stroke="#6147FF" stroke-width="2" stroke-linecap="round"/>
<path d="M94 15L94 9" stroke="#6147FF" stroke-width="2" stroke-linecap="round"/>
</svg>