<svg width="29" height="28" viewBox="0 0 29 28" fill="none" xmlns="http://www.w3.org/2000/svg">
<path fill-rule="evenodd" clip-rule="evenodd" d="M4.70837 10.5C4.70837 7.13324 7.46662 4.375 10.8334 4.375H17.8334C21.2001 4.375 23.9584 7.13324 23.9584 10.5V16.625H16.6667C16.1835 16.625 15.7917 17.0168 15.7917 17.5C15.7917 18.3001 15.1335 18.9583 14.3334 18.9583C13.5333 18.9583 12.875 18.3001 12.875 17.5C12.875 17.0168 12.4833 16.625 12 16.625H4.70837V10.5ZM2.95837 17.5C2.95837 21.8332 6.50013 25.375 10.8334 25.375H17.8334C22.1666 25.375 25.7084 21.8332 25.7084 17.5V10.5C25.7084 6.16675 22.1666 2.625 17.8334 2.625H10.8334C6.50013 2.625 2.95837 6.16675 2.95837 10.5V17.5ZM4.77125 18.375H11.2467C11.6294 19.7189 12.8699 20.7083 14.3334 20.7083C15.7968 20.7083 17.0374 19.7189 17.42 18.375H23.8955C23.4672 21.3318 20.9032 23.625 17.8334 23.625H10.8334C7.76351 23.625 5.19956 21.3318 4.77125 18.375Z" fill="#000"/>
</svg>
