<svg width="76" height="28" viewBox="0 0 76 28" fill="none" xmlns="http://www.w3.org/2000/svg">
<path fill-rule="evenodd" clip-rule="evenodd" d="M18.3912 21.5462C17.1847 21.5462 16.1167 21.2595 15.1873 20.6861C14.2579 20.1127 13.5323 19.3099 13.0106 18.2778C12.5052 17.2457 12.2524 16.0333 12.2524 14.6408C12.2524 13.2482 12.5052 12.0359 13.0106 11.0037C13.5323 9.97164 14.2579 9.16889 15.1873 8.59547C16.1167 8.02206 17.1847 7.73535 18.3912 7.73535C19.9076 7.73535 21.1305 8.26782 22.0598 9.33268L22.0843 8.42343C22.0843 8.12855 22.2392 7.98111 22.549 7.98111H26.2421C26.5356 7.98111 26.6823 8.12855 26.6823 8.42343V20.8581C26.6823 21.153 26.5356 21.3004 26.2421 21.3004H22.549C22.2392 21.3004 22.0843 21.153 22.0843 20.8581L22.0598 19.9489C21.1305 21.0137 19.9076 21.5462 18.3912 21.5462ZM19.6875 16.8771C20.3071 16.8771 20.8043 16.6722 21.1794 16.2627C21.5544 15.8367 21.7419 15.2961 21.7419 14.6408C21.7419 13.9855 21.5544 13.453 21.1794 13.0434C20.8043 12.6175 20.3071 12.4045 19.6875 12.4045C19.0842 12.4045 18.5869 12.6175 18.1956 13.0434C17.8205 13.453 17.633 13.9855 17.633 14.6408C17.633 15.2961 17.8205 15.8367 18.1956 16.2627C18.5869 16.6722 19.0842 16.8771 19.6875 16.8771ZM2.00626 21.3004C1.71278 21.3004 1.56604 21.153 1.56604 20.8581V8.42343C1.56604 8.12855 1.71278 7.98111 2.00626 7.98111H5.69936C5.99283 7.98111 6.14771 8.12855 6.16405 8.42343L6.21294 9.52924C6.6695 8.9067 7.21571 8.46438 7.85162 8.20227C8.50381 7.94016 9.22123 7.80907 10.0039 7.80907C10.3626 7.80907 10.6968 7.85819 11.0066 7.95651C11.2512 8.02206 11.3735 8.18585 11.3735 8.44803V12.4782C11.3735 12.8223 11.2104 12.9533 10.8843 12.8714C10.493 12.7731 10.0609 12.724 9.58808 12.724C9.26199 12.724 8.88701 12.7977 8.46306 12.9451C8.05539 13.0926 7.69667 13.3383 7.38693 13.6823C7.09345 14.0264 6.94671 14.5015 6.94671 15.1077V20.8581C6.94671 21.153 6.79997 21.3004 6.50642 21.3004H2.00626Z" fill="#6147FF"/>
<path fill-rule="evenodd" clip-rule="evenodd" d="M52.9988 5.96619C53.5531 6.47406 54.2298 6.728 55.0287 6.728C55.844 6.728 56.5207 6.47406 57.0587 5.96619C57.6131 5.45833 57.8903 4.80302 57.8903 4.00019C57.8903 3.18109 57.6131 2.52578 57.0587 2.03426C56.5207 1.5264 55.844 1.27246 55.0287 1.27246C54.2298 1.27246 53.5531 1.5264 52.9988 2.03426C52.4444 2.52578 52.1672 3.18109 52.1672 4.00019C52.1672 4.80302 52.4444 5.45833 52.9988 5.96619ZM52.3384 20.8583C52.3384 21.1532 52.4852 21.3006 52.7787 21.3006H57.2789C57.5724 21.3006 57.7191 21.1532 57.7191 20.8583V8.42364C57.7191 8.12876 57.5724 7.98132 57.2789 7.98132H52.7787C52.4852 7.98132 52.3384 8.12876 52.3384 8.42364V20.8583ZM30.835 19.8999C31.6176 20.9976 32.9301 21.5464 34.7726 21.5464C35.4085 21.5464 36.0525 21.4481 36.7047 21.2515C37.3733 21.0549 37.9848 20.7437 38.539 20.3177C39.0934 19.8754 39.5256 19.3101 39.8353 18.622C39.9821 18.2944 39.9168 18.0732 39.6396 17.9586L36.7292 16.7298C36.5009 16.6315 36.3297 16.6479 36.2157 16.7789C36.1015 16.9264 36.0037 17.0247 35.9222 17.0738C35.857 17.1066 35.7753 17.123 35.6775 17.123C35.2699 17.123 35.0661 16.7052 35.0661 15.8697V12.5275H37.3161C37.6096 12.5275 37.7565 12.3801 37.7565 12.0852V8.54648C37.7565 8.2516 37.6096 8.10416 37.3161 8.10416H35.0661V5.27811C35.0661 4.98323 34.9194 4.83579 34.6259 4.83579H30.1257C29.8322 4.83579 29.6855 4.98323 29.6855 5.27811V8.10416H28.3893C28.0957 8.10416 27.949 8.2516 27.949 8.54648V12.0852C27.949 12.3801 28.0957 12.5275 28.3893 12.5275H29.6855V15.2799C29.6855 17.2622 30.0686 18.8022 30.835 19.8999ZM41.5053 21.3006C41.2118 21.3006 41.0651 21.1532 41.0651 20.8583V8.42364C41.0651 8.12876 41.2118 7.98132 41.5053 7.98132H45.1984C45.4919 7.98132 45.6468 8.12876 45.6631 8.42364L45.7121 9.52945C46.1685 8.90691 46.7147 8.46459 47.3507 8.20248C48.0028 7.94037 48.7203 7.80928 49.5029 7.80928C49.8616 7.80928 50.1959 7.8584 50.5056 7.95672C50.7503 8.02227 50.8725 8.18606 50.8725 8.44824V12.4784C50.8725 12.8225 50.7095 12.9535 50.3834 12.8716C49.9921 12.7733 49.5599 12.7242 49.0872 12.7242C48.761 12.7242 48.386 12.7979 47.9621 12.9453C47.5544 13.0928 47.1957 13.3385 46.886 13.6825C46.5925 14.0266 46.4457 14.5017 46.4457 15.1079V20.8583C46.4457 21.1532 46.299 21.3006 46.0055 21.3006H41.5053ZM61.2635 9.5545C62.7155 8.09561 64.684 7.27501 66.7375 7.27269C68.7908 7.27501 70.7594 8.09561 72.2113 9.5545C73.6633 11.0134 74.48 12.9915 74.4823 15.0546C74.4823 18.2209 72.1946 20.8502 69.7715 23.6332C69.0047 24.5145 68.2108 25.426 67.5042 26.3481C67.4137 26.466 67.2976 26.5615 67.1647 26.6271C67.0317 26.6928 66.8856 26.727 66.7375 26.727C66.5893 26.727 66.4431 26.6928 66.3103 26.6271C66.1773 26.5615 66.0611 26.466 65.9707 26.3481C65.264 25.426 64.4701 24.5145 63.7034 23.6332C61.2802 20.8502 58.9926 18.2209 58.9926 15.0546C58.9948 12.9915 59.8117 11.0134 61.2635 9.5545ZM65.1238 17.481C65.6015 17.8017 66.1631 17.9728 66.7375 17.9728C67.5078 17.9728 68.2464 17.6654 68.7911 17.1181C69.3358 16.5708 69.6418 15.8285 69.6418 15.0546C69.6418 14.4774 69.4715 13.9132 69.1523 13.4333C68.8332 12.9534 68.3795 12.5794 67.8489 12.3585C67.3182 12.1376 66.7342 12.0799 66.1708 12.1925C65.6075 12.305 65.0899 12.583 64.6838 12.9911C64.2776 13.3992 64.001 13.9192 63.889 14.4853C63.7769 15.0514 63.8344 15.6381 64.0542 16.1713C64.274 16.7046 64.6463 17.1604 65.1238 17.481Z" fill="#6147FF"/>
</svg>
