<svg width="29" height="28" viewBox="0 0 29 28" fill="none" xmlns="http://www.w3.org/2000/svg">
<path fill-rule="evenodd" clip-rule="evenodd" d="M24.7776 11.555H3.98291C3.49991 11.555 3.10791 11.163 3.10791 10.68C3.10791 10.197 3.49991 9.80499 3.98291 9.80499H24.7776C25.2606 9.80499 25.6526 10.197 25.6526 10.68C25.6526 11.163 25.2606 11.555 24.7776 11.555" fill="#000"/>
<path fill-rule="evenodd" clip-rule="evenodd" d="M19.5681 16.1112C19.0851 16.1112 18.6884 15.7192 18.6884 15.2362C18.6884 14.7532 19.0746 14.3612 19.5576 14.3612H19.5681C20.0511 14.3612 20.4431 14.7532 20.4431 15.2362C20.4431 15.7192 20.0511 16.1112 19.5681 16.1112" fill="#000"/>
<path fill-rule="evenodd" clip-rule="evenodd" d="M14.391 16.1112C13.908 16.1112 13.5113 15.7192 13.5113 15.2362C13.5113 14.7532 13.8975 14.3612 14.3805 14.3612H14.391C14.874 14.3612 15.266 14.7532 15.266 15.2362C15.266 15.7192 14.874 16.1112 14.391 16.1112" fill="#000"/>
<path fill-rule="evenodd" clip-rule="evenodd" d="M9.20304 16.1112C8.72004 16.1112 8.3222 15.7192 8.3222 15.2362C8.3222 14.7532 8.70954 14.3612 9.19254 14.3612H9.20304C9.68604 14.3612 10.078 14.7532 10.078 15.2362C10.078 15.7192 9.68604 16.1112 9.20304 16.1112" fill="#000"/>
<path fill-rule="evenodd" clip-rule="evenodd" d="M19.5681 20.6457C19.0851 20.6457 18.6884 20.2537 18.6884 19.7707C18.6884 19.2877 19.0746 18.8957 19.5576 18.8957H19.5681C20.0511 18.8957 20.4431 19.2877 20.4431 19.7707C20.4431 20.2537 20.0511 20.6457 19.5681 20.6457" fill="#000"/>
<path fill-rule="evenodd" clip-rule="evenodd" d="M14.391 20.6457C13.908 20.6457 13.5113 20.2537 13.5113 19.7707C13.5113 19.2877 13.8975 18.8957 14.3805 18.8957H14.391C14.874 18.8957 15.266 19.2877 15.266 19.7707C15.266 20.2537 14.874 20.6457 14.391 20.6457" fill="#000"/>
<path fill-rule="evenodd" clip-rule="evenodd" d="M9.20304 20.6457C8.72004 20.6457 8.3222 20.2537 8.3222 19.7707C8.3222 19.2877 8.70954 18.8957 9.19254 18.8957H9.20304C9.68604 18.8957 10.078 19.2877 10.078 19.7707C10.078 20.2537 9.68604 20.6457 9.20304 20.6457" fill="#000"/>
<path fill-rule="evenodd" clip-rule="evenodd" d="M19.0924 6.75616C18.6094 6.75616 18.2174 6.36416 18.2174 5.88116V2.04166C18.2174 1.55866 18.6094 1.16666 19.0924 1.16666C19.5754 1.16666 19.9674 1.55866 19.9674 2.04166V5.88116C19.9674 6.36416 19.5754 6.75616 19.0924 6.75616" fill="#000"/>
<path fill-rule="evenodd" clip-rule="evenodd" d="M9.66785 6.75616C9.18485 6.75616 8.79285 6.36416 8.79285 5.88116V2.04166C8.79285 1.55866 9.18485 1.16666 9.66785 1.16666C10.1508 1.16666 10.5428 1.55866 10.5428 2.04166V5.88116C10.5428 6.36416 10.1508 6.75616 9.66785 6.75616" fill="#000"/>
<mask id="mask0_585_8974" style="mask-type:luminance" maskUnits="userSpaceOnUse" x="3" y="3" width="23" height="24">
<path fill-rule="evenodd" clip-rule="evenodd" d="M3 3.00894H25.75V26.25H3V3.00894Z" fill="white"/>
</mask>
<g mask="url(#mask0_585_8974)">
<path fill-rule="evenodd" clip-rule="evenodd" d="M9.44117 4.75894C6.416 4.75894 4.75 6.37244 4.75 9.30194V19.8591C4.75 22.8528 6.416 24.5001 9.44117 24.5001H19.3088C22.334 24.5001 24 22.8831 24 19.9478V9.30194C24.0047 7.86111 23.6173 6.74111 22.8485 5.97111C22.0575 5.17778 20.8383 4.75894 19.3193 4.75894H9.44117ZM19.3088 26.2501H9.44117C5.46867 26.2501 3 23.8013 3 19.8591V9.30194C3 5.41928 5.46867 3.00894 9.44117 3.00894H19.3193C21.3132 3.00894 22.9617 3.60627 24.0875 4.73444C25.1807 5.83228 25.7558 7.41078 25.75 9.30428V19.9478C25.75 23.8351 23.2813 26.2501 19.3088 26.2501V26.2501Z" fill="#000"/>
</g>
</svg>
