<svg width="28" height="28" viewBox="0 0 28 28" fill="none" xmlns="http://www.w3.org/2000/svg">
<path fill-rule="evenodd" clip-rule="evenodd" d="M6.80381 4.25831C8.71275 2.34947 11.3007 1.27578 14.0004 1.27274C16.6998 1.27578 19.288 2.34947 21.1967 4.25831C23.1057 6.16716 24.1793 8.75533 24.1823 11.4548C24.1823 15.5976 21.1747 19.0379 17.9892 22.6793C16.981 23.8324 15.9374 25.025 15.0083 26.2316C14.8894 26.3858 14.7367 26.5107 14.562 26.5966C14.3872 26.6825 14.195 26.7273 14.0004 26.7273C13.8055 26.7273 13.6134 26.6825 13.4387 26.5966C13.2638 26.5107 13.1111 26.3858 12.9922 26.2316C12.0632 25.025 11.0195 23.8324 10.0115 22.6793C6.82579 19.0379 3.81824 15.5976 3.81824 11.4548C3.82118 8.75533 4.89506 6.16716 6.80381 4.25831ZM11.8789 14.6295C12.5069 15.0491 13.2452 15.273 14.0004 15.273C15.013 15.273 15.9841 14.8708 16.7002 14.1547C17.4163 13.4387 17.8186 12.4674 17.8186 11.4548C17.8186 10.6996 17.5947 9.96139 17.1751 9.33348C16.7555 8.70558 16.1591 8.21613 15.4615 7.92715C14.7638 7.63816 13.996 7.56261 13.2554 7.70989C12.5147 7.85718 11.8343 8.22083 11.3003 8.75484C10.7663 9.28884 10.4027 9.96924 10.2555 10.7099C10.1081 11.4506 10.1837 12.2183 10.4727 12.916C10.7616 13.6137 11.2511 14.21 11.8789 14.6295Z" fill="#6147FF"/>
</svg>
